<svg width="1555" height="135" viewBox="0 0 1555 135" fill="none" xmlns="http://www.w3.org/2000/svg">
<path d="M39.42 132C31.62 132 24.78 130.26 18.9 126.78C13.02 123.3 8.46 118.68 5.22 112.92C1.98 107.16 0.36 100.8 0.36 93.84V5.99999H30.6V96C30.6 98.88 31.62 101.4 33.66 103.56C35.7 105.72 38.22 106.8 41.22 106.8H74.52V132H39.42ZM125.532 134.16C117.372 134.16 110.172 132.06 103.932 127.86C97.6917 123.66 92.8317 118.02 89.3517 110.94C85.8717 103.74 84.1317 95.64 84.1317 86.64C84.1317 77.28 86.1717 68.94 90.2517 61.62C94.3317 54.18 100.092 48.3 107.532 43.98C115.092 39.66 123.972 37.5 134.172 37.5C144.492 37.5 153.252 39.66 160.452 43.98C167.772 48.18 173.352 54 177.192 61.44C181.152 68.76 183.132 76.98 183.132 86.1V132H155.772V117.24H155.052C153.372 120.48 151.212 123.42 148.572 126.06C145.932 128.58 142.692 130.56 138.852 132C135.132 133.44 130.692 134.16 125.532 134.16ZM133.812 110.04C138.012 110.04 141.672 109.02 144.792 106.98C148.032 104.82 150.492 101.88 152.172 98.16C153.852 94.44 154.692 90.3 154.692 85.74C154.692 81.3 153.852 77.28 152.172 73.68C150.492 70.08 148.032 67.26 144.792 65.22C141.672 63.06 138.012 61.98 133.812 61.98C129.492 61.98 125.712 63.06 122.472 65.22C119.232 67.26 116.772 70.08 115.092 73.68C113.412 77.28 112.572 81.3 112.572 85.74C112.572 90.3 113.412 94.44 115.092 98.16C116.772 101.88 119.232 104.82 122.472 106.98C125.712 109.02 129.492 110.04 133.812 110.04ZM249.124 132C239.524 132 231.004 130.02 223.564 126.06C216.124 121.98 210.244 116.52 205.924 109.68C201.604 102.72 199.444 94.8 199.444 85.92C199.444 77.04 201.604 69.18 205.924 62.34C210.244 55.38 216.124 49.86 223.564 45.78C231.004 41.7 239.524 39.66 249.124 39.66H262.984V63.24H250.204C245.524 63.24 241.504 64.26 238.144 66.3C234.784 68.22 232.144 70.92 230.224 74.4C228.424 77.76 227.524 81.6 227.524 85.92C227.524 90.24 228.424 94.14 230.224 97.62C232.144 100.98 234.784 103.68 238.144 105.72C241.504 107.64 245.524 108.6 250.204 108.6H262.984V132H249.124ZM278.471 132V0.599997H306.371V132H278.471ZM364.067 134.16C355.907 134.16 348.707 132.06 342.467 127.86C336.227 123.66 331.367 118.02 327.887 110.94C324.407 103.74 322.667 95.64 322.667 86.64C322.667 77.28 324.707 68.94 328.787 61.62C332.867 54.18 338.627 48.3 346.067 43.98C353.627 39.66 362.507 37.5 372.707 37.5C383.027 37.5 391.787 39.66 398.987 43.98C406.307 48.18 411.887 54 415.727 61.44C419.687 68.76 421.667 76.98 421.667 86.1V132H394.307V117.24H393.587C391.907 120.48 389.747 123.42 387.107 126.06C384.467 128.58 381.227 130.56 377.387 132C373.667 133.44 369.227 134.16 364.067 134.16ZM372.347 110.04C376.547 110.04 380.207 109.02 383.327 106.98C386.567 104.82 389.027 101.88 390.707 98.16C392.387 94.44 393.227 90.3 393.227 85.74C393.227 81.3 392.387 77.28 390.707 73.68C389.027 70.08 386.567 67.26 383.327 65.22C380.207 63.06 376.547 61.98 372.347 61.98C368.027 61.98 364.247 63.06 361.007 65.22C357.767 67.26 355.307 70.08 353.627 73.68C351.947 77.28 351.107 81.3 351.107 85.74C351.107 90.3 351.947 94.44 353.627 98.16C355.307 101.88 357.767 104.82 361.007 106.98C364.247 109.02 368.027 110.04 372.347 110.04ZM442.479 132V109.86H486.939C488.139 109.86 489.219 109.62 490.179 109.14C491.139 108.54 491.919 107.76 492.519 106.8C493.119 105.84 493.419 104.82 493.419 103.74C493.419 102.54 493.119 101.46 492.519 100.5C491.919 99.54 491.139 98.82 490.179 98.34C489.219 97.74 488.139 97.44 486.939 97.44H470.739C464.739 97.44 459.279 96.48 454.359 94.56C449.559 92.52 445.719 89.4 442.839 85.2C440.079 80.88 438.699 75.3 438.699 68.46C438.699 63.18 439.959 58.38 442.479 54.06C445.119 49.74 448.659 46.26 453.099 43.62C457.659 40.98 462.639 39.66 468.039 39.66H512.499V61.98H472.359C470.679 61.98 469.239 62.52 468.039 63.6C466.959 64.68 466.419 66 466.419 67.56C466.419 69.24 466.959 70.68 468.039 71.88C469.239 72.96 470.679 73.5 472.359 73.5H488.199C494.919 73.5 500.679 74.52 505.479 76.56C510.399 78.48 514.179 81.6 516.819 85.92C519.579 90.24 520.959 95.82 520.959 102.66C520.959 108.06 519.579 112.98 516.819 117.42C514.179 121.86 510.579 125.4 506.019 128.04C501.579 130.68 496.539 132 490.899 132H442.479ZM537.929 132V109.86H582.389C583.589 109.86 584.669 109.62 585.629 109.14C586.589 108.54 587.369 107.76 587.969 106.8C588.569 105.84 588.869 104.82 588.869 103.74C588.869 102.54 588.569 101.46 587.969 100.5C587.369 99.54 586.589 98.82 585.629 98.34C584.669 97.74 583.589 97.44 582.389 97.44H566.189C560.189 97.44 554.729 96.48 549.809 94.56C545.009 92.52 541.169 89.4 538.289 85.2C535.529 80.88 534.149 75.3 534.149 68.46C534.149 63.18 535.409 58.38 537.929 54.06C540.569 49.74 544.109 46.26 548.549 43.62C553.109 40.98 558.089 39.66 563.489 39.66H607.949V61.98H567.809C566.129 61.98 564.689 62.52 563.489 63.6C562.409 64.68 561.869 66 561.869 67.56C561.869 69.24 562.409 70.68 563.489 71.88C564.689 72.96 566.129 73.5 567.809 73.5H583.649C590.369 73.5 596.129 74.52 600.929 76.56C605.849 78.48 609.629 81.6 612.269 85.92C615.029 90.24 616.409 95.82 616.409 102.66C616.409 108.06 615.029 112.98 612.269 117.42C609.629 121.86 606.029 125.4 601.469 128.04C597.029 130.68 591.989 132 586.349 132H537.929ZM735.452 132C727.772 132 720.992 130.32 715.112 126.96C709.352 123.48 704.792 118.86 701.432 113.1C698.192 107.34 696.572 100.92 696.572 93.84V31.2H662.372V5.99999H760.832V31.2H726.812V96.54C726.812 99.3 727.772 101.7 729.692 103.74C731.612 105.78 734.012 106.8 736.892 106.8H746.792V132H735.452ZM813.274 132C802.834 132 793.654 130.08 785.734 126.24C777.814 122.28 771.634 116.88 767.194 110.04C762.874 103.08 760.714 95.04 760.714 85.92C760.714 75.84 762.814 67.2 767.014 60C771.214 52.8 776.794 47.28 783.754 43.44C790.834 39.48 798.634 37.5 807.154 37.5C816.874 37.5 824.974 39.54 831.454 43.62C838.054 47.7 843.034 53.28 846.394 60.36C849.754 67.32 851.434 75.3 851.434 84.3C851.434 85.86 851.314 87.72 851.074 89.88C850.954 91.92 850.774 93.54 850.534 94.74H790.054C790.774 97.86 792.154 100.5 794.194 102.66C796.234 104.82 798.814 106.44 801.934 107.52C805.054 108.48 808.534 108.96 812.374 108.96H840.634V132H813.274ZM789.334 77.28H824.434C824.194 75.36 823.834 73.5 823.354 71.7C822.874 69.9 822.094 68.34 821.014 67.02C820.054 65.58 818.914 64.38 817.594 63.42C816.274 62.34 814.714 61.5 812.914 60.9C811.234 60.3 809.314 60 807.154 60C804.394 60 801.934 60.48 799.774 61.44C797.614 62.4 795.814 63.72 794.374 65.4C792.934 66.96 791.794 68.82 790.954 70.98C790.234 73.02 789.694 75.12 789.334 77.28ZM913.05 132C903.45 132 894.93 130.02 887.49 126.06C880.05 121.98 874.17 116.52 869.85 109.68C865.53 102.72 863.37 94.8 863.37 85.92C863.37 77.04 865.53 69.18 869.85 62.34C874.17 55.38 880.05 49.86 887.49 45.78C894.93 41.7 903.45 39.66 913.05 39.66H926.91V63.24H914.13C909.45 63.24 905.43 64.26 902.07 66.3C898.71 68.22 896.07 70.92 894.15 74.4C892.35 77.76 891.45 81.6 891.45 85.92C891.45 90.24 892.35 94.14 894.15 97.62C896.07 100.98 898.71 103.68 902.07 105.72C905.43 107.64 909.45 108.6 914.13 108.6H926.91V132H913.05ZM942.397 132V0.599997H970.297V45.78C973.897 42.9 977.857 40.8 982.177 39.48C986.497 38.16 990.817 37.5 995.137 37.5C1003.54 37.5 1010.62 39.3 1016.38 42.9C1022.26 46.5 1026.64 51.42 1029.52 57.66C1032.52 63.9 1034.02 70.98 1034.02 78.9V132H1006.12V79.98C1006.12 76.5 1005.28 73.44 1003.6 70.8C1002.04 68.04 999.877 65.88 997.117 64.32C994.477 62.64 991.537 61.8 988.297 61.8C985.057 61.8 982.057 62.58 979.297 64.14C976.537 65.7 974.317 67.8 972.637 70.44C971.077 73.08 970.297 76.08 970.297 79.44V132H942.397ZM1103.79 132V106.8H1157.61C1160.01 106.8 1162.17 106.2 1164.09 105C1166.01 103.8 1167.51 102.24 1168.59 100.32C1169.79 98.4 1170.39 96.3 1170.39 94.02C1170.39 91.62 1169.79 89.46 1168.59 87.54C1167.51 85.62 1166.01 84.06 1164.09 82.86C1162.17 81.66 1160.01 81.06 1157.61 81.06H1138.17C1130.85 81.06 1124.19 79.62 1118.19 76.74C1112.19 73.86 1107.39 69.66 1103.79 64.14C1100.31 58.5 1098.57 51.78 1098.57 43.98C1098.57 36.3 1100.25 29.64 1103.61 24C1106.97 18.36 1111.53 13.98 1117.29 10.86C1123.05 7.61999 1129.41 5.99999 1136.37 5.99999H1191.99V31.2H1139.79C1137.63 31.2 1135.65 31.74 1133.85 32.82C1132.05 33.9 1130.67 35.34 1129.71 37.14C1128.75 38.94 1128.27 40.92 1128.27 43.08C1128.27 45.24 1128.75 47.22 1129.71 49.02C1130.67 50.7 1132.05 52.08 1133.85 53.16C1135.65 54.24 1137.63 54.78 1139.79 54.78H1160.13C1168.17 54.78 1175.13 56.34 1181.01 59.46C1187.01 62.46 1191.63 66.72 1194.87 72.24C1198.23 77.64 1199.91 84 1199.91 91.32C1199.91 99.96 1198.17 107.34 1194.69 113.46C1191.33 119.46 1186.77 124.08 1181.01 127.32C1175.25 130.44 1168.89 132 1161.93 132H1103.79ZM1249.93 132C1241.41 132 1234.75 129.6 1229.95 124.8C1225.15 119.88 1222.75 113.28 1222.75 105V17.16H1250.83V103.38C1250.83 104.82 1251.31 106.08 1252.27 107.16C1253.35 108.12 1254.61 108.6 1256.05 108.6H1276.21V132H1249.93ZM1207.63 62.52V39.66H1276.21V62.52H1207.63ZM1335.81 134.16C1326.33 134.16 1317.81 132.06 1310.25 127.86C1302.69 123.66 1296.69 117.9 1292.25 110.58C1287.93 103.26 1285.77 95.04 1285.77 85.92C1285.77 76.68 1287.93 68.46 1292.25 61.26C1296.69 53.94 1302.69 48.18 1310.25 43.98C1317.81 39.66 1326.33 37.5 1335.81 37.5C1345.29 37.5 1353.75 39.66 1361.19 43.98C1368.75 48.18 1374.69 53.94 1379.01 61.26C1383.45 68.46 1385.67 76.68 1385.67 85.92C1385.67 95.04 1383.45 103.26 1379.01 110.58C1374.69 117.9 1368.75 123.66 1361.19 127.86C1353.63 132.06 1345.17 134.16 1335.81 134.16ZM1335.81 109.86C1340.25 109.86 1344.09 108.78 1347.33 106.62C1350.57 104.46 1353.09 101.58 1354.89 97.98C1356.69 94.38 1357.59 90.3 1357.59 85.74C1357.59 81.3 1356.69 77.28 1354.89 73.68C1353.09 70.08 1350.57 67.2 1347.33 65.04C1344.09 62.88 1340.25 61.8 1335.81 61.8C1331.37 61.8 1327.47 62.88 1324.11 65.04C1320.87 67.2 1318.35 70.08 1316.55 73.68C1314.75 77.28 1313.85 81.3 1313.85 85.74C1313.85 90.3 1314.75 94.38 1316.55 97.98C1318.35 101.58 1320.87 104.46 1324.11 106.62C1327.47 108.78 1331.37 109.86 1335.81 109.86ZM1401.52 132V66.84C1401.52 58.44 1403.92 51.84 1408.72 47.04C1413.52 42.24 1420.18 39.84 1428.7 39.84H1455.52V62.52H1435.54C1433.86 62.52 1432.42 63.12 1431.22 64.32C1430.02 65.4 1429.42 66.84 1429.42 68.64V132H1401.52ZM1516.22 132C1505.78 132 1496.6 130.08 1488.68 126.24C1480.76 122.28 1474.58 116.88 1470.14 110.04C1465.82 103.08 1463.66 95.04 1463.66 85.92C1463.66 75.84 1465.76 67.2 1469.96 60C1474.16 52.8 1479.74 47.28 1486.7 43.44C1493.78 39.48 1501.58 37.5 1510.1 37.5C1519.82 37.5 1527.92 39.54 1534.4 43.62C1541 47.7 1545.98 53.28 1549.34 60.36C1552.7 67.32 1554.38 75.3 1554.38 84.3C1554.38 85.86 1554.26 87.72 1554.02 89.88C1553.9 91.92 1553.72 93.54 1553.48 94.74H1493C1493.72 97.86 1495.1 100.5 1497.14 102.66C1499.18 104.82 1501.76 106.44 1504.88 107.52C1508 108.48 1511.48 108.96 1515.32 108.96H1543.58V132H1516.22ZM1492.28 77.28H1527.38C1527.14 75.36 1526.78 73.5 1526.3 71.7C1525.82 69.9 1525.04 68.34 1523.96 67.02C1523 65.58 1521.86 64.38 1520.54 63.42C1519.22 62.34 1517.66 61.5 1515.86 60.9C1514.18 60.3 1512.26 60 1510.1 60C1507.34 60 1504.88 60.48 1502.72 61.44C1500.56 62.4 1498.76 63.72 1497.32 65.4C1495.88 66.96 1494.74 68.82 1493.9 70.98C1493.18 73.02 1492.64 75.12 1492.28 77.28Z" fill="white"/>
</svg>
